<svg width="24" height="24" viewBox="0 0 24 24" fill="none" xmlns="http://www.w3.org/2000/svg" style="animation: 0.5s ease-in-out 0s infinite normal none running spinner; transform-origin: center center; display: block;"><path d="M22 14C23.1046 14 24 13.1045 24 12C24 10.8954 23.1046 9.99995 22 9.99995C20.8954 9.99995 20 10.8954 20 12C20 13.1045 20.8954 14 22 14Z" fill="#1200FD"></path><path d="M17.6561 20.4853C18.4371 21.2663 19.7035 21.2663 20.4845 20.4853C21.2656 19.7042 21.2656 18.4379 20.4845 17.6569C19.7035 16.8758 18.4371 16.8758 17.6561 17.6569C16.875 18.4379 16.875 19.7042 17.6561 20.4853Z" fill="#1200FD" fill-opacity="0.875"></path><path d="M9.99999 22.0001C9.99999 23.1046 10.8954 24.0001 12 24.0001C13.1046 24.0001 14 23.1046 14 22.0001C14 20.8955 13.1046 20 12 20C10.8954 20 9.99999 20.8955 9.99999 22.0001Z" fill="#1200FD" fill-opacity="0.75"></path><path d="M3.51516 17.6568C2.73411 18.4379 2.73411 19.7042 3.51516 20.4853C4.29621 21.2663 5.56255 21.2663 6.3436 20.4853C7.12465 19.7042 7.12465 18.4379 6.3436 17.6568C5.56255 16.8758 4.29621 16.8758 3.51516 17.6568Z" fill="#1200FD" fill-opacity="0.625"></path><path d="M2 9.99994C0.895423 9.99994 -9.05991e-06 10.8954 -9.05991e-06 11.9999C-9.05991e-06 13.1045 0.895423 13.9999 2 13.9999C3.10457 13.9999 4 13.1045 4 11.9999C4 10.8954 3.10457 9.99994 2 9.99994Z" fill="#1200FD" fill-opacity="0.5"></path><path d="M6.3439 3.51458C5.56285 2.73353 4.29652 2.73353 3.51547 3.51458C2.73442 4.29563 2.73442 5.56197 3.51547 6.34302C4.29652 7.12407 5.56285 7.12407 6.3439 6.34302C7.12495 5.56197 7.12495 4.29563 6.3439 3.51458Z" fill="#1200FD" fill-opacity="0.375"></path><path d="M14 1.99996C14 0.895385 13.1046 -4.72069e-05 12 -4.72069e-05C10.8954 -4.72069e-05 10 0.895385 10 1.99996C10 3.10453 10.8954 3.99996 12 3.99996C13.1046 3.99996 14 3.10453 14 1.99996Z" fill="#1200FD" fill-opacity="0.25"></path><path d="M20.4848 6.34313C21.2659 5.56208 21.2659 4.29575 20.4848 3.5147C19.7038 2.73365 18.4375 2.73365 17.6564 3.5147C16.8754 4.29575 16.8754 5.56208 17.6564 6.34313C18.4375 7.12418 19.7038 7.12418 20.4848 6.34313Z" fill="#1200FD" fill-opacity="0.125"></path></svg>